<?xml version="1.0" encoding="UTF-8"?>
<svg width="1024" height="1024" viewBox="0 0 1024 1024" xmlns="http://www.w3.org/2000/svg" role="img" aria-labelledby="title desc">
  <title id="title">ScaraBot app icon</title>
  <desc id="desc">Naive childlike white line drawing of a robot head on a black background, with crooked side antennae.</desc>


  <g fill="none" stroke="#000000" stroke-width="22" stroke-linecap="round" stroke-linejoin="round">
    <!-- testa principale, volutamente storta -->
    <path d="
      M 222 215
      C 285 210, 360 214, 432 211
      C 512 208, 615 209, 698 214
      C 731 216, 759 216, 788 221
      C 796 305, 794 402, 797 493
      C 800 589, 804 684, 788 766
      C 700 780, 604 778, 505 779
      C 412 780, 313 777, 229 764
      C 217 675, 218 579, 218 486
      C 218 390, 215 298, 222 215
      Z"/>

    <!-- orecchio sinistro -->
    <path d="
      M 218 452
      L 153 448
      C 144 486, 144 534, 151 571
      L 219 584"/>

    <!-- orecchio destro -->
    <path d="
      M 798 446
      L 865 438
      C 877 485, 879 532, 868 568
      L 800 586"/>

    <!-- antennina sinistra dall'orecchio -->
    <path d="
      M 151 448
      C 145 415, 138 392, 124 366
      C 118 350, 118 336, 126 325"/>
    <path d="
      M 126 325
      C 141 305, 169 306, 177 327
      C 184 346, 166 365, 143 362
      C 128 360, 119 345, 126 325
      Z"/>

    <!-- antennina destra dall'orecchio -->
    <path d="
      M 866 438
      C 880 411, 880 381, 888 354
      C 893 339, 897 328, 909 319"/>
    <path d="
      M 909 319
      C 926 304, 950 312, 952 334
      C 954 353, 936 367, 918 361
      C 904 356, 898 334, 909 319
      Z"/>

    <!-- occhio sinistro grande e storto -->
    <path d="
      M 323 375
      C 370 340, 428 349, 462 386
      C 501 427, 484 500, 429 541
      C 384 575, 319 555, 294 506
      C 265 449, 274 410, 323 375
      Z"/>

    <!-- pupilla sinistra -->
    <circle cx="382" cy="464" r="12" fill="#000000" stroke="none"/>

    <!-- occhio destro piccolo e storto -->
    <path d="
      M 620 391
      C 648 366, 688 368, 704 397
      C 725 433, 706 483, 666 490
      C 632 495, 602 476, 596 443
      C 592 421, 602 405, 620 391
      Z"/>

    <!-- pupilla destra -->
    <circle cx="668" cy="445" r="12" fill="#000000" stroke="none"/>

    <!-- bocca a griglia -->
    <path d="
      M 372 632
      C 438 626, 510 625, 579 623
      C 623 622, 670 622, 706 624
      C 729 626, 742 643, 741 667
      C 739 692, 723 704, 697 703
      C 626 702, 558 704, 487 707
      C 441 709, 397 707, 357 704
      C 343 690, 342 655, 351 642
      C 355 636, 361 633, 372 632
      Z"/>

    <!-- denti / righe interne storte -->
    <path d="M 407 634 C 405 655, 405 680, 408 703"/>
    <path d="M 459 628 C 458 651, 458 681, 459 707"/>
    <path d="M 515 626 C 514 651, 514 679, 516 706"/>
    <path d="M 572 625 C 571 650, 572 677, 573 704"/>
    <path d="M 631 624 C 630 649, 631 677, 632 703"/>
    <path d="M 688 625 C 687 649, 688 677, 689 702"/>
  </g>
</svg>
